<svg width="169" height="30" viewBox="0 0 169 30" fill="none" xmlns="http://www.w3.org/2000/svg">
<path d="M23.9798 29H18.3798L5.69984 9.84V29H0.099844V1.04H5.69984L18.3798 20.24V1.04H23.9798V29ZM35.1139 5.6V12.6H44.5139V17.04H35.1139V24.44H45.7139V29H29.5139V1.04H45.7139V5.6H35.1139ZM88.123 1.08L80.323 29H73.723L68.483 9.12L63.003 29L56.443 29.04L48.923 1.08H54.923L59.843 22.76L65.523 1.08H71.763L77.123 22.64L82.083 1.08H88.123ZM111.22 9.48C110.58 8.30667 109.7 7.41333 108.58 6.8C107.46 6.18667 106.153 5.88 104.66 5.88C103.006 5.88 101.54 6.25333 100.26 7C98.9795 7.74667 97.9795 8.81333 97.2595 10.2C96.5395 11.5867 96.1795 13.1867 96.1795 15C96.1795 16.8667 96.5395 18.4933 97.2595 19.88C98.0062 21.2667 99.0329 22.3333 100.34 23.08C101.646 23.8267 103.166 24.2 104.9 24.2C107.033 24.2 108.78 23.64 110.14 22.52C111.5 21.3733 112.393 19.7867 112.82 17.76H103.22V13.48H118.34V18.36C117.966 20.3067 117.166 22.1067 115.94 23.76C114.713 25.4133 113.126 26.7467 111.18 27.76C109.26 28.7467 107.1 29.24 104.7 29.24C102.006 29.24 99.5662 28.64 97.3795 27.44C95.2195 26.2133 93.5129 24.52 92.2595 22.36C91.0329 20.2 90.4195 17.7467 90.4195 15C90.4195 12.2533 91.0329 9.8 92.2595 7.64C93.5129 5.45333 95.2195 3.76 97.3795 2.56C99.5662 1.33333 101.993 0.719999 104.66 0.719999C107.806 0.719999 110.54 1.49333 112.86 3.04C115.18 4.56 116.78 6.70667 117.66 9.48H111.22ZM128.083 1.08V29H122.483V1.08H128.083ZM157.495 29H151.895L139.215 9.84V29H133.615V1.04H139.215L151.895 20.24V1.04H157.495V29Z" fill="#222222"/>
<path d="M165.51 29.28C164.496 29.28 163.656 28.9733 162.99 28.36C162.35 27.72 162.03 26.9333 162.03 26C162.03 25.0667 162.35 24.2933 162.99 23.68C163.656 23.04 164.496 22.72 165.51 22.72C166.496 22.72 167.31 23.04 167.95 23.68C168.59 24.2933 168.91 25.0667 168.91 26C168.91 26.9333 168.59 27.72 167.95 28.36C167.31 28.9733 166.496 29.28 165.51 29.28Z" fill="#5A42FF"/>
</svg>
