<svg width="192" height="192" viewBox="0 0 192 192" fill="none" xmlns="http://www.w3.org/2000/svg">
<path d="M164 92V88C164 69.9653 156.836 52.6692 144.083 39.9167C131.331 27.1643 114.035 20 96 20C77.9653 20 60.6692 27.1643 47.9167 39.9167C35.1643 52.6692 28 69.9653 28 88V92C22.6976 92.0064 17.6142 94.1155 13.8649 97.8649C10.1155 101.614 8.00635 106.698 8 112V120C8.00635 125.302 10.1155 130.386 13.8649 134.135C17.6142 137.884 22.6976 139.994 28 140H28.736C29.5603 142.332 31.0849 144.352 33.1012 145.784C35.1175 147.216 37.527 147.99 40 148H48C51.1826 148 54.2348 146.736 56.4853 144.485C58.7357 142.235 60 139.183 60 136V96C60 92.8174 58.7357 89.7652 56.4853 87.5147C54.2348 85.2643 51.1826 84 48 84H40C38.6937 84.015 37.3988 84.2462 36.168 84.684C36.9985 69.3767 43.6643 54.9699 54.7939 44.4278C65.9234 33.8857 80.6702 28.0103 96 28.0103C111.33 28.0103 126.077 33.8857 137.206 44.4278C148.336 54.9699 155.001 69.3767 155.832 84.684C154.601 84.2462 153.306 84.015 152 84H144C140.817 84 137.765 85.2643 135.515 87.5147C133.264 89.7652 132 92.8174 132 96V136C132 139.183 133.264 142.235 135.515 144.485C137.765 146.736 140.817 148 144 148C144 151.183 142.736 154.235 140.485 156.485C138.235 158.736 135.183 160 132 160H115.264C114.44 157.668 112.915 155.648 110.899 154.216C108.883 152.784 106.473 152.01 104 152H88C84.8174 152 81.7652 153.264 79.5147 155.515C77.2643 157.765 76 160.817 76 164C76 167.183 77.2643 170.235 79.5147 172.485C81.7652 174.736 84.8174 176 88 176H104C106.473 175.99 108.883 175.216 110.899 173.784C112.915 172.352 114.44 170.332 115.264 168H132C137.302 167.994 142.386 165.884 146.135 162.135C149.884 158.386 151.994 153.302 152 148C154.473 147.99 156.883 147.216 158.899 145.784C160.915 144.352 162.44 142.332 163.264 140H164C169.302 139.994 174.386 137.884 178.135 134.135C181.884 130.386 183.994 125.302 184 120V112C183.994 106.698 181.884 101.614 178.135 97.8649C174.386 94.1155 169.302 92.0064 164 92ZM16 120V112C16 108.817 17.2643 105.765 19.5147 103.515C21.7652 101.264 24.8174 100 28 100V132C24.8174 132 21.7652 130.736 19.5147 128.485C17.2643 126.235 16 123.183 16 120ZM40 92H48C49.0609 92 50.0783 92.4214 50.8284 93.1716C51.5786 93.9217 52 94.9391 52 96V136C52 137.061 51.5786 138.078 50.8284 138.828C50.0783 139.579 49.0609 140 48 140H40C38.9391 140 37.9217 139.579 37.1716 138.828C36.4214 138.078 36 137.061 36 136V96C36 94.9391 36.4214 93.9217 37.1716 93.1716C37.9217 92.4214 38.9391 92 40 92ZM104 168H88C86.9391 168 85.9217 167.579 85.1716 166.828C84.4214 166.078 84 165.061 84 164C84 162.939 84.4214 161.922 85.1716 161.172C85.9217 160.421 86.9391 160 88 160H104C105.061 160 106.078 160.421 106.828 161.172C107.579 161.922 108 162.939 108 164C108 165.061 107.579 166.078 106.828 166.828C106.078 167.579 105.061 168 104 168ZM152 140H144C142.939 140 141.922 139.579 141.172 138.828C140.421 138.078 140 137.061 140 136V96C140 94.9391 140.421 93.9217 141.172 93.1716C141.922 92.4214 142.939 92 144 92H152C153.061 92 154.078 92.4214 154.828 93.1716C155.579 93.9217 156 94.9391 156 96V136C156 137.061 155.579 138.078 154.828 138.828C154.078 139.579 153.061 140 152 140ZM176 120C176 123.183 174.736 126.235 172.485 128.485C170.235 130.736 167.183 132 164 132V100C167.183 100 170.235 101.264 172.485 103.515C174.736 105.765 176 108.817 176 112V120Z" fill="#5A42FF"/>
</svg>
